<?xml version="1.0" encoding="utf-8"?>
<!-- Generator: Adobe Illustrator 27.5.0, SVG Export Plug-In . SVG Version: 6.00 Build 0)  -->
<svg version="1.1" xmlns="http://www.w3.org/2000/svg" xmlns:xlink="http://www.w3.org/1999/xlink" x="0px" y="0px"
	 viewBox="0 0 500 500" style="enable-background:new 0 0 500 500;" xml:space="preserve">
<g id="Background">
	<rect style="fill:#FFFFFF;" width="500" height="500"/>
</g>
<g id="Objects">
	<g>
		<g>
			<text transform="matrix(1 0 0 1 149.1294 245.4187)" style="fill:#166B48; font-family:'BebasNeueBold'; font-size:173.9126px;">404</text>
			<g>
				<path style="fill:#ED6C32;" d="M370.311,158.804L370.311,158.804c-4.083,2.722-5.274,8.189-2.694,12.363l3.163,5.116
					l4.581-1.604l4.582,1.604l3.163-5.116c2.58-4.174,1.389-9.641-2.694-12.363l0,0
					C377.353,156.765,373.369,156.765,370.311,158.804z"/>
				<path style="fill:#ED6C32;" d="M351.449,175.525L351.449,175.525c0.316,4.897,4.455,8.662,9.36,8.515l6.012-0.181l0.902-4.77
					l3.68-3.166l-2.849-5.297c-2.324-4.321-7.655-6.023-12.054-3.848l0,0C353.205,168.407,351.212,171.857,351.449,175.525z"/>
				<path style="fill:#ED6C32;" d="M356.499,200.221L356.499,200.221c4.399,2.175,9.729,0.473,12.054-3.848l2.849-5.297l-3.68-3.166
					l-0.902-4.77l-6.012-0.181c-4.905-0.148-9.044,3.618-9.36,8.515l0,0C351.212,195.141,353.205,198.592,356.499,200.221z"/>
				<path style="fill:#ED6C32;" d="M380.411,208.195L380.411,208.195c4.083-2.722,5.274-8.189,2.694-12.363l-3.163-5.116
					l-4.582,1.604l-4.582-1.604l-3.163,5.116c-2.58,4.174-1.389,9.641,2.694,12.363l0,0
					C373.369,210.234,377.353,210.234,380.411,208.195z"/>
				<path style="fill:#ED6C32;" d="M399.273,191.473L399.273,191.473c-0.316-4.897-4.455-8.662-9.36-8.515l-6.012,0.181l-0.902,4.77
					l-3.68,3.166l2.85,5.297c2.324,4.321,7.655,6.023,12.054,3.848l0,0C397.518,198.592,399.51,195.141,399.273,191.473z"/>
				<path style="fill:#ED6C32;" d="M394.223,166.778L394.223,166.778c-4.398-2.175-9.729-0.473-12.054,3.848l-2.85,5.297l3.68,3.166
					l0.902,4.77l6.012,0.181c4.905,0.148,9.044-3.618,9.36-8.515l0,0C399.51,171.857,397.518,168.407,394.223,166.778z"/>
				
					<ellipse transform="matrix(0.2287 -0.9735 0.9735 0.2287 110.8956 506.9587)" style="fill:#F8C64D;" cx="375.361" cy="183.499" rx="11.225" ry="11.225"/>
			</g>
			<g>
				<path style="fill:#ED6C32;" d="M285.776,306.434L285.776,306.434c-3.113,2.075-4.021,6.244-2.054,9.426l2.411,3.901l3.493-1.223
					l3.493,1.223l2.411-3.901c1.967-3.182,1.059-7.351-2.054-9.426l0,0C291.145,304.879,288.108,304.879,285.776,306.434z"/>
				<path style="fill:#ED6C32;" d="M271.395,319.183L271.395,319.183c0.241,3.733,3.397,6.604,7.136,6.492l4.584-0.138l0.688-3.637
					l2.806-2.414l-2.173-4.039c-1.772-3.295-5.837-4.592-9.19-2.934l0,0C272.733,313.755,271.214,316.386,271.395,319.183z"/>
				<path style="fill:#ED6C32;" d="M275.245,338.012L275.245,338.012c3.354,1.658,7.418,0.361,9.19-2.934l2.173-4.039l-2.806-2.414
					l-0.688-3.637l-4.584-0.138c-3.74-0.113-6.895,2.758-7.136,6.492l0,0C271.214,334.139,272.733,336.77,275.245,338.012z"/>
				<path style="fill:#ED6C32;" d="M293.477,344.091L293.477,344.091c3.113-2.075,4.021-6.244,2.054-9.426l-2.411-3.901
					l-3.493,1.223l-3.493-1.223l-2.411,3.901c-1.967,3.182-1.059,7.351,2.054,9.426h0
					C288.108,345.646,291.145,345.646,293.477,344.091z"/>
				<path style="fill:#ED6C32;" d="M307.858,331.342L307.858,331.342c-0.241-3.733-3.397-6.604-7.136-6.492l-4.584,0.138
					l-0.688,3.637l-2.805,2.414l2.173,4.039c1.772,3.295,5.837,4.592,9.19,2.934l0,0C306.52,336.77,308.038,334.139,307.858,331.342
					z"/>
				<path style="fill:#ED6C32;" d="M304.007,312.513L304.007,312.513c-3.354-1.658-7.418-0.361-9.19,2.934l-2.173,4.039l2.805,2.414
					l0.688,3.637l4.584,0.138c3.739,0.113,6.895-2.759,7.136-6.492l0,0C308.038,316.386,306.52,313.755,304.007,312.513z"/>
				<circle style="fill:#F8C64D;" cx="289.626" cy="325.263" r="8.558"/>
			</g>
			<g>
				<path style="fill:#ED6C32;" d="M231.185,247.255L231.185,247.255c-1.95,1.3-2.52,3.912-1.287,5.906l1.511,2.444l2.189-0.766
					l2.189,0.766l1.511-2.444c1.233-1.994,0.663-4.606-1.287-5.906l0,0C234.549,246.281,232.646,246.281,231.185,247.255z"/>
				<path style="fill:#ED6C32;" d="M222.174,255.243L222.174,255.243c0.151,2.339,2.128,4.138,4.471,4.068l2.872-0.086l0.431-2.279
					l1.758-1.512l-1.361-2.531c-1.111-2.064-3.657-2.877-5.758-1.838l0,0C223.013,251.842,222.061,253.49,222.174,255.243z"/>
				<path style="fill:#ED6C32;" d="M224.587,267.04L224.587,267.04c2.101,1.039,4.648,0.226,5.758-1.839l1.361-2.531l-1.758-1.512
					l-0.431-2.279l-2.872-0.087c-2.343-0.07-4.32,1.728-4.471,4.068l0,0C222.061,264.614,223.013,266.262,224.587,267.04z"/>
				<path style="fill:#ED6C32;" d="M236.01,270.85L236.01,270.85c1.95-1.3,2.52-3.912,1.287-5.906l-1.511-2.444l-2.189,0.766
					l-2.189-0.766l-1.511,2.444c-1.233,1.994-0.663,4.606,1.287,5.906v0C232.646,271.824,234.549,271.824,236.01,270.85z"/>
				<path style="fill:#ED6C32;" d="M245.021,262.862L245.021,262.862c-0.151-2.339-2.128-4.138-4.471-4.068l-2.872,0.087
					l-0.431,2.279l-1.758,1.512l1.361,2.531c1.111,2.064,3.657,2.878,5.758,1.839l0,0
					C244.182,266.262,245.134,264.614,245.021,262.862z"/>
				<path style="fill:#ED6C32;" d="M242.608,251.064L242.608,251.064c-2.101-1.039-4.648-0.226-5.758,1.839l-1.361,2.531
					l1.758,1.512l0.431,2.279l2.872,0.086c2.343,0.07,4.32-1.728,4.471-4.068l0,0C245.134,253.49,244.182,251.842,242.608,251.064z"
					/>
				<path style="fill:#F8C64D;" d="M238.96,259.052c0,2.962-2.401,5.363-5.362,5.363s-5.362-2.401-5.362-5.363
					c0-2.962,2.401-5.362,5.362-5.362S238.96,256.091,238.96,259.052z"/>
			</g>
			<g>
				<path style="fill:#F8C64D;" d="M299.868,228.014L299.868,228.014c-3.116,2.077-4.026,6.251-2.056,9.437l2.414,3.905l3.497-1.224
					l3.497,1.224l2.414-3.905c1.969-3.186,1.06-7.359-2.056-9.437l0,0C305.243,226.458,302.202,226.458,299.868,228.014z"/>
				<path style="fill:#F8C64D;" d="M285.471,240.777L285.471,240.777c0.241,3.738,3.401,6.612,7.144,6.499l4.589-0.138l0.689-3.641
					l2.809-2.417l-2.175-4.043c-1.774-3.298-5.843-4.598-9.201-2.937l0,0C286.811,235.344,285.29,237.977,285.471,240.777z"/>
				<path style="fill:#F8C64D;" d="M289.326,259.627L289.326,259.627c3.357,1.66,7.426,0.361,9.201-2.938l2.175-4.043l-2.809-2.417
					l-0.689-3.641l-4.589-0.138c-3.744-0.113-6.903,2.762-7.144,6.499l0,0C285.29,255.75,286.811,258.384,289.326,259.627z"/>
				<path style="fill:#F8C64D;" d="M307.578,265.713L307.578,265.713c3.116-2.078,4.026-6.251,2.056-9.437l-2.414-3.905
					l-3.497,1.224l-3.497-1.224l-2.414,3.905c-1.969,3.186-1.06,7.359,2.056,9.437l0,0
					C302.202,267.27,305.243,267.27,307.578,265.713z"/>
				<path style="fill:#F8C64D;" d="M321.975,252.95L321.975,252.95c-0.241-3.738-3.401-6.612-7.144-6.499l-4.589,0.138l-0.689,3.641
					l-2.809,2.417l2.175,4.043c1.774,3.298,5.843,4.597,9.201,2.938h0C320.635,258.384,322.155,255.75,321.975,252.95z"/>
				<path style="fill:#F8C64D;" d="M318.12,234.1L318.12,234.1c-3.357-1.66-7.426-0.361-9.201,2.937l-2.175,4.043l2.809,2.417
					l0.689,3.641l4.589,0.138c3.744,0.113,6.903-2.762,7.144-6.499l0,0C322.155,237.977,320.635,235.344,318.12,234.1z"/>
				
					<ellipse transform="matrix(0.2306 -0.973 0.973 0.2306 -6.5259 485.474)" style="fill:#ED6C32;" cx="303.723" cy="246.864" rx="8.568" ry="8.568"/>
			</g>
			<g>
				<path style="fill:#F8C64D;" d="M309.494,127.211L309.494,127.211c-2.314,1.543-2.99,4.643-1.527,7.009l1.793,2.9l2.597-0.909
					l2.597,0.909l1.793-2.9c1.463-2.366,0.787-5.465-1.527-7.009l0,0C313.486,126.055,311.228,126.055,309.494,127.211z"/>
				<path style="fill:#F8C64D;" d="M298.802,136.69L298.802,136.69c0.179,2.776,2.526,4.91,5.306,4.827l3.408-0.103l0.511-2.704
					l2.086-1.795l-1.615-3.003c-1.318-2.45-4.34-3.415-6.833-2.182v0C299.797,132.655,298.668,134.611,298.802,136.69z"/>
				<path style="fill:#F8C64D;" d="M301.665,150.69L301.665,150.69c2.493,1.233,5.515,0.268,6.833-2.182l1.615-3.003l-2.086-1.795
					l-0.511-2.704l-3.408-0.102c-2.78-0.084-5.127,2.051-5.306,4.827l0,0C298.668,147.81,299.797,149.766,301.665,150.69z"/>
				<path style="fill:#F8C64D;" d="M315.22,155.21L315.22,155.21c2.315-1.543,2.99-4.642,1.527-7.008l-1.793-2.9l-2.597,0.909
					l-2.597-0.909l-1.793,2.9c-1.463,2.366-0.787,5.465,1.527,7.008l0,0C311.228,156.366,313.486,156.366,315.22,155.21z"/>
				<path style="fill:#F8C64D;" d="M325.913,145.731L325.913,145.731c-0.179-2.776-2.526-4.911-5.306-4.827l-3.408,0.102
					l-0.511,2.704l-2.086,1.795l1.615,3.003c1.318,2.45,4.34,3.415,6.833,2.182l0,0C324.917,149.766,326.047,147.81,325.913,145.731
					z"/>
				<path style="fill:#F8C64D;" d="M323.05,131.732L323.05,131.732c-2.493-1.233-5.515-0.268-6.833,2.182l-1.615,3.003l2.086,1.795
					l0.511,2.704l3.408,0.103c2.78,0.084,5.127-2.051,5.306-4.827l0,0C326.047,134.611,324.917,132.655,323.05,131.732z"/>
				<path style="fill:#ED6C32;" d="M318.72,141.211c0,3.514-2.849,6.363-6.363,6.363c-3.514,0-6.363-2.849-6.363-6.363
					c0-3.514,2.849-6.363,6.363-6.363C315.872,134.847,318.72,137.696,318.72,141.211z"/>
			</g>
			<g>
				<path style="fill:#F8C64D;" d="M249.28,309.288L249.28,309.288c-2.031,1.354-2.624,4.075-1.34,6.152l1.574,2.546l2.28-0.798
					l2.28,0.798l1.574-2.546c1.284-2.077,0.691-4.797-1.341-6.152l0,0C252.784,308.274,250.801,308.274,249.28,309.288z"/>
				<path style="fill:#F8C64D;" d="M239.894,317.609L239.894,317.609c0.157,2.436,2.217,4.31,4.657,4.237l2.992-0.09l0.449-2.373
					l1.831-1.575l-1.418-2.636c-1.157-2.15-3.809-2.997-5.998-1.915l0,0C240.768,314.067,239.776,315.784,239.894,317.609z"/>
				<path style="fill:#F8C64D;" d="M242.407,329.897L242.407,329.897c2.189,1.082,4.841,0.235,5.998-1.915l1.418-2.636l-1.831-1.575
					l-0.449-2.373l-2.992-0.09c-2.44-0.073-4.5,1.8-4.657,4.237l0,0C239.776,327.37,240.768,329.086,242.407,329.897z"/>
				<path style="fill:#F8C64D;" d="M254.306,333.865L254.306,333.865c2.032-1.354,2.624-4.075,1.341-6.152l-1.574-2.546l-2.28,0.798
					l-2.28-0.798l-1.574,2.546c-1.284,2.077-0.691,4.797,1.34,6.152l0,0C250.801,334.879,252.784,334.879,254.306,333.865z"/>
				<path style="fill:#F8C64D;" d="M263.691,325.544L263.691,325.544c-0.157-2.436-2.217-4.31-4.657-4.237l-2.992,0.09l-0.449,2.373
					l-1.831,1.575l1.418,2.636c1.157,2.15,3.809,2.997,5.998,1.915l0,0C262.818,329.086,263.809,327.37,263.691,325.544z"/>
				<path style="fill:#F8C64D;" d="M261.178,313.256L261.178,313.256c-2.189-1.082-4.841-0.235-5.998,1.915l-1.418,2.636
					l1.831,1.575l0.449,2.373l2.992,0.09c2.441,0.073,4.5-1.8,4.657-4.237l0,0C263.809,315.784,262.818,314.067,261.178,313.256z"/>
				<circle style="fill:#ED6C32;" cx="251.793" cy="321.577" r="5.585"/>
			</g>
			<g>
				<path style="fill:#F8C64D;" d="M285.879,39.862L285.879,39.862c-2.088,1.392-2.697,4.188-1.378,6.323l1.618,2.617l2.343-0.82
					l2.343,0.82l1.618-2.617c1.32-2.135,0.71-4.931-1.378-6.323l0,0C289.481,38.819,287.443,38.819,285.879,39.862z"/>
				<path style="fill:#F8C64D;" d="M276.233,48.414L276.233,48.414c0.162,2.504,2.279,4.43,4.787,4.355l3.075-0.093l0.461-2.439
					l1.882-1.619l-1.457-2.709c-1.189-2.21-3.915-3.08-6.165-1.968l0,0C277.13,44.773,276.112,46.538,276.233,48.414z"/>
				<path style="fill:#F8C64D;" d="M278.815,61.044L278.815,61.044c2.25,1.112,4.976,0.242,6.165-1.968l1.457-2.709l-1.882-1.619
					l-0.461-2.439l-3.075-0.092c-2.508-0.076-4.625,1.85-4.787,4.355l0,0C276.112,58.446,277.13,60.211,278.815,61.044z"/>
				<path style="fill:#F8C64D;" d="M291.045,65.122L291.045,65.122c2.088-1.392,2.697-4.188,1.378-6.323l-1.618-2.617l-2.343,0.82
					l-2.343-0.82l-1.618,2.617c-1.32,2.135-0.71,4.931,1.378,6.323l0,0C287.443,66.165,289.481,66.165,291.045,65.122z"/>
				<path style="fill:#F8C64D;" d="M300.692,56.57L300.692,56.57c-0.161-2.504-2.279-4.43-4.787-4.355l-3.075,0.093l-0.461,2.439
					l-1.882,1.619l1.457,2.709c1.189,2.21,3.915,3.081,6.165,1.968l0,0C299.794,60.211,300.813,58.446,300.692,56.57z"/>
				<path style="fill:#F8C64D;" d="M298.109,43.94L298.109,43.94c-2.249-1.112-4.976-0.242-6.165,1.968l-1.457,2.709l1.882,1.619
					l0.461,2.439l3.075,0.093c2.508,0.075,4.625-1.85,4.787-4.355l0,0C300.813,46.538,299.794,44.773,298.109,43.94z"/>
				<path style="fill:#ED6C32;" d="M294.203,52.492c0,3.171-2.57,5.741-5.741,5.741s-5.741-2.57-5.741-5.741
					c0-3.171,2.57-5.741,5.741-5.741S294.203,49.321,294.203,52.492z"/>
			</g>
			<g>
				<path style="fill:#ED6C32;" d="M147.561,247.892l-4.182,2.415l-10.953-18.972c-0.667-1.155-0.271-2.632,0.884-3.298l0,0
					c1.155-0.667,2.632-0.271,3.299,0.884L147.561,247.892z"/>
				<path style="fill:#ED6C32;" d="M145.44,246.668v4.829h-21.907c-1.333,0-2.415-1.081-2.415-2.415l0,0
					c0-1.334,1.081-2.415,2.415-2.415H145.44z"/>
				<path style="fill:#ED6C32;" d="M143.32,247.892l4.182,2.415l-10.953,18.972c-0.667,1.155-2.144,1.551-3.299,0.884l0,0
					c-1.155-0.667-1.551-2.143-0.884-3.298L143.32,247.892z"/>
				<path style="fill:#ED6C32;" d="M143.32,250.341l4.182-2.415l10.953,18.972c0.667,1.155,0.271,2.632-0.884,3.298l0,0
					c-1.155,0.667-2.632,0.271-3.298-0.884L143.32,250.341z"/>
				<path style="fill:#ED6C32;" d="M145.44,251.565v-4.829h21.907c1.334,0,2.415,1.081,2.415,2.415v0
					c0,1.333-1.081,2.415-2.415,2.415H145.44z"/>
				<path style="fill:#ED6C32;" d="M147.561,250.341l-4.182-2.415l10.953-18.972c0.667-1.155,2.143-1.551,3.298-0.884l0,0
					c1.155,0.667,1.551,2.144,0.884,3.299L147.561,250.341z"/>
				<g>
					<path style="fill:#F8C64D;" d="M141.315,228.775L141.315,228.775c-3.363,2.242-4.345,6.747-2.219,10.185l2.606,4.215
						l3.774-1.321l3.774,1.321l2.606-4.215c2.126-3.438,1.144-7.943-2.219-10.185l0,0
						C147.116,227.095,143.834,227.095,141.315,228.775z"/>
					<path style="fill:#F8C64D;" d="M125.776,242.55L125.776,242.55c0.26,4.034,3.67,7.136,7.711,7.014l4.953-0.149l0.743-3.929
						l3.031-2.608l-2.347-4.364c-1.915-3.56-6.307-4.962-9.93-3.17l0,0C127.222,236.686,125.581,239.529,125.776,242.55z"/>
					<path style="fill:#F8C64D;" d="M129.937,262.895L129.937,262.895c3.624,1.792,8.015,0.39,9.93-3.17l2.347-4.364l-3.031-2.608
						l-0.743-3.929l-4.953-0.149c-4.04-0.122-7.451,2.98-7.711,7.014l0,0C125.581,258.71,127.222,261.553,129.937,262.895z"/>
					<path style="fill:#F8C64D;" d="M149.636,269.464L149.636,269.464c3.363-2.242,4.345-6.747,2.219-10.185l-2.606-4.215
						l-3.774,1.321l-3.775-1.321l-2.606,4.215c-2.126,3.438-1.144,7.943,2.219,10.185l0,0
						C143.834,271.144,147.116,271.144,149.636,269.464z"/>
					<path style="fill:#F8C64D;" d="M165.175,255.689L165.175,255.689c-0.26-4.034-3.67-7.136-7.711-7.014l-4.953,0.149
						l-0.743,3.929l-3.031,2.608l2.347,4.364c1.915,3.56,6.307,4.962,9.93,3.17h0C163.728,261.553,165.369,258.71,165.175,255.689z"
						/>
					<path style="fill:#F8C64D;" d="M161.014,235.344L161.014,235.344c-3.624-1.792-8.015-0.389-9.93,3.171l-2.347,4.364
						l3.031,2.608l0.743,3.929l4.953,0.149c4.04,0.122,7.451-2.981,7.711-7.014l0,0
						C165.369,239.529,163.728,236.686,161.014,235.344z"/>
					<circle style="fill:#ED6C32;" cx="145.475" cy="249.12" r="9.247"/>
				</g>
			</g>
			<g>
				<path style="fill:#F8C64D;" d="M236.352,49.208l-2.652,1.531l-6.945-12.029c-0.423-0.732-0.172-1.669,0.56-2.091l0,0
					c0.732-0.423,1.669-0.172,2.091,0.56L236.352,49.208z"/>
				<path style="fill:#F8C64D;" d="M235.008,48.432v3.062h-13.89c-0.846,0-1.531-0.686-1.531-1.531l0,0
					c0-0.846,0.685-1.531,1.531-1.531H235.008z"/>
				<path style="fill:#F8C64D;" d="M233.663,49.208l2.652,1.531l-6.945,12.029c-0.423,0.732-1.359,0.983-2.091,0.56l0,0
					c-0.732-0.423-0.983-1.359-0.56-2.091L233.663,49.208z"/>
				<path style="fill:#F8C64D;" d="M233.663,50.761l2.652-1.531l6.945,12.029c0.423,0.732,0.172,1.669-0.56,2.091l0,0
					c-0.732,0.423-1.669,0.172-2.091-0.56L233.663,50.761z"/>
				<path style="fill:#F8C64D;" d="M235.008,51.537v-3.062h13.89c0.845,0,1.531,0.686,1.531,1.531l0,0
					c0,0.846-0.686,1.531-1.531,1.531H235.008z"/>
				<path style="fill:#F8C64D;" d="M236.352,50.761L233.7,49.23l6.945-12.029c0.423-0.732,1.359-0.983,2.091-0.56l0,0
					c0.732,0.423,0.983,1.359,0.56,2.091L236.352,50.761z"/>
				<g>
					<path style="fill:#ED6C32;" d="M232.392,37.087L232.392,37.087c-2.133,1.422-2.755,4.278-1.407,6.458l1.652,2.673l2.393-0.838
						l2.393,0.838l1.652-2.673c1.348-2.18,0.725-5.036-1.407-6.458h0C236.07,36.022,233.989,36.022,232.392,37.087z"/>
					<path style="fill:#ED6C32;" d="M222.54,45.821L222.54,45.821c0.165,2.558,2.327,4.525,4.889,4.447l3.14-0.094l0.471-2.491
						l1.922-1.654l-1.488-2.767c-1.214-2.257-3.999-3.146-6.296-2.01l0,0C223.457,42.103,222.416,43.905,222.54,45.821z"/>
					<path style="fill:#ED6C32;" d="M225.178,58.721L225.178,58.721c2.298,1.136,5.082,0.247,6.296-2.01l1.488-2.767l-1.922-1.654
						l-0.471-2.491l-3.14-0.095c-2.562-0.077-4.724,1.89-4.889,4.448l0,0C222.416,56.067,223.457,57.87,225.178,58.721z"/>
					<path style="fill:#ED6C32;" d="M237.668,62.886L237.668,62.886c2.133-1.422,2.755-4.278,1.407-6.458l-1.652-2.673l-2.393,0.838
						l-2.393-0.838l-1.652,2.673c-1.348,2.18-0.725,5.036,1.407,6.458l0,0C233.989,63.951,236.07,63.951,237.668,62.886z"/>
					<path style="fill:#ED6C32;" d="M247.52,54.152L247.52,54.152c-0.165-2.558-2.327-4.525-4.889-4.448l-3.141,0.095l-0.471,2.491
						l-1.922,1.654l1.488,2.767c1.214,2.257,3.999,3.146,6.296,2.01l0,0C246.603,57.87,247.643,56.067,247.52,54.152z"/>
					<path style="fill:#ED6C32;" d="M244.882,41.252L244.882,41.252c-2.298-1.136-5.082-0.247-6.296,2.01l-1.488,2.767l1.922,1.654
						l0.471,2.491l3.14,0.094c2.562,0.077,4.724-1.89,4.889-4.447l0,0C247.643,43.905,246.603,42.103,244.882,41.252z"/>
					<circle style="fill:#F8C64D;" cx="235.03" cy="49.986" r="5.863"/>
				</g>
			</g>
			<g>
				<path style="fill:#A4D794;" d="M409.891,218.306c-7.152-5.02-16.853-5.755-24.907-1.081
					c-8.054,4.674-12.227,13.463-11.415,22.163c7.152,5.02,16.853,5.755,24.907,1.081
					C406.529,235.795,410.702,227.006,409.891,218.306z"/>
				
					<line style="fill:none;stroke:#75A64D;stroke-width:3.7003;stroke-linecap:round;stroke-miterlimit:10;" x1="402.131" y1="222.811" x2="368.635" y2="242.253"/>
				
					<line style="fill:none;stroke:#75A64D;stroke-width:3.7003;stroke-linecap:round;stroke-miterlimit:10;" x1="395.831" y1="219.329" x2="393.671" y2="227.468"/>
				
					<line style="fill:none;stroke:#75A64D;stroke-width:3.7003;stroke-linecap:round;stroke-miterlimit:10;" x1="398.019" y1="234.959" x2="386.957" y2="232.022"/>
				
					<line style="fill:none;stroke:#75A64D;stroke-width:3.7003;stroke-linecap:round;stroke-miterlimit:10;" x1="382.821" y1="225.811" x2="380.425" y2="234.835"/>
			</g>
			<g>
				<path style="fill:#75A64D;" d="M338.443,65.615c-8.187,7.923-11.516,20.163-7.512,31.625
					c4.004,11.462,14.23,18.967,25.569,20.069c8.187-7.923,11.516-20.163,7.512-31.625
					C360.008,74.222,349.782,66.716,338.443,65.615z"/>
				
					<line style="fill:none;stroke:#A4D794;stroke-width:4.8245;stroke-linecap:round;stroke-miterlimit:10;" x1="342.301" y1="76.659" x2="358.953" y2="124.33"/>
				
					<line style="fill:none;stroke:#A4D794;stroke-width:4.8245;stroke-linecap:round;stroke-miterlimit:10;" x1="336.293" y1="83.868" x2="346.182" y2="88.637"/>
				
					<line style="fill:none;stroke:#A4D794;stroke-width:4.8245;stroke-linecap:round;stroke-miterlimit:10;" x1="356.844" y1="84.913" x2="350.362" y2="98.354"/>
				
					<line style="fill:none;stroke:#A4D794;stroke-width:4.8245;stroke-linecap:round;stroke-miterlimit:10;" x1="341.392" y1="102.122" x2="352.357" y2="107.409"/>
			</g>
			<g>
				<path style="fill:#F8C64D;" d="M153.63,75.947L153.63,75.947c-3.216,2.144-4.155,6.451-2.122,9.74l2.492,4.031l3.609-1.263
					l3.609,1.263l2.492-4.031c2.033-3.288,1.094-7.595-2.122-9.74l0,0C159.178,74.34,156.039,74.34,153.63,75.947z"/>
				<path style="fill:#F8C64D;" d="M138.771,89.12L138.771,89.12c0.249,3.858,3.51,6.824,7.374,6.708l4.736-0.143l0.711-3.757
					l2.899-2.494l-2.245-4.173c-1.831-3.404-6.031-4.745-9.496-3.032v0C140.154,83.512,138.585,86.23,138.771,89.12z"/>
				<path style="fill:#F8C64D;" d="M142.75,108.575L142.75,108.575c3.465,1.713,7.665,0.373,9.496-3.032l2.245-4.173l-2.899-2.494
					l-0.711-3.757l-4.737-0.143c-3.864-0.116-7.125,2.85-7.373,6.708v0C138.585,104.573,140.154,107.291,142.75,108.575z"/>
				<path style="fill:#F8C64D;" d="M161.588,114.857L161.588,114.857c3.216-2.144,4.155-6.451,2.122-9.74l-2.492-4.031l-3.609,1.263
					l-3.609-1.263l-2.492,4.031c-2.033,3.288-1.094,7.595,2.122,9.74l0,0C156.039,116.463,159.178,116.463,161.588,114.857z"/>
				<path style="fill:#F8C64D;" d="M176.447,101.684L176.447,101.684c-0.249-3.858-3.51-6.824-7.374-6.708l-4.737,0.143
					l-0.711,3.757l-2.899,2.494l2.245,4.173c1.831,3.404,6.031,4.745,9.496,3.032v0
					C175.064,107.291,176.633,104.573,176.447,101.684z"/>
				<path style="fill:#F8C64D;" d="M172.468,82.229L172.468,82.229c-3.465-1.713-7.665-0.373-9.496,3.032l-2.245,4.173l2.899,2.494
					l0.711,3.757l4.736,0.143c3.864,0.116,7.125-2.85,7.374-6.708v0C176.633,86.23,175.064,83.512,172.468,82.229z"/>
				<circle style="fill:#ED6C32;" cx="157.609" cy="95.402" r="8.843"/>
			</g>
			<g>
				<path style="fill:#F8C64D;" d="M370.294,221.611L370.294,221.611c-4.802,2.205-6.993,7.818-4.954,12.693l2.499,5.976
					l5.144-0.931l4.602,2.48l4.228-4.907c3.449-4.003,3.106-10.019-0.776-13.603l0,0
					C378.129,220.633,373.891,219.959,370.294,221.611z"/>
				<path style="fill:#F8C64D;" d="M347.409,236.207L347.409,236.207c-0.492,5.261,3.274,9.965,8.515,10.637l6.425,0.824l1.765-4.92
					l4.448-2.745l-2.135-6.115c-1.742-4.988-7.124-7.699-12.169-6.13h0C350.479,228.933,347.777,232.266,347.409,236.207z"/>
				<path style="fill:#F8C64D;" d="M348.607,263.324L348.607,263.324c4.31,3.056,10.267,2.147,13.47-2.056l3.926-5.152l-3.378-3.989
					l-0.153-5.225l-6.363-1.208c-5.191-0.986-10.23,2.319-11.393,7.474h0C343.843,257.028,345.378,261.035,348.607,263.324z"/>
				<path style="fill:#F8C64D;" d="M372.69,275.845L372.69,275.845c4.802-2.205,6.993-7.818,4.954-12.693l-2.499-5.976l-5.143,0.931
					l-4.602-2.48l-4.228,4.907c-3.449,4.003-3.106,10.019,0.776,13.603h0C364.856,276.823,369.093,277.497,372.69,275.845z"/>
				<path style="fill:#F8C64D;" d="M395.575,261.249L395.575,261.249c0.492-5.261-3.274-9.965-8.515-10.637l-6.425-0.824
					l-1.765,4.92l-4.448,2.745l2.135,6.115c1.742,4.988,7.123,7.699,12.169,6.13l0,0
					C392.505,268.523,395.207,265.19,395.575,261.249z"/>
				<path style="fill:#F8C64D;" d="M394.377,234.132L394.377,234.132c-4.31-3.056-10.267-2.147-13.47,2.056l-3.926,5.152
					l3.378,3.989l0.153,5.225l6.363,1.208c5.191,0.986,10.23-2.319,11.393-7.474l0,0
					C399.142,240.428,397.606,236.421,394.377,234.132z"/>
				<path style="fill:#ED6C32;" d="M383.43,250.625c-1.048,6.593-7.242,11.089-13.835,10.041
					c-6.593-1.048-11.089-7.242-10.041-13.835c1.048-6.593,7.242-11.089,13.835-10.041
					C379.982,237.838,384.477,244.032,383.43,250.625z"/>
			</g>
			<g>
				<path style="fill:#A4D794;" d="M218.094,231.82c-8.653-3.194-18.753-1.328-25.711,5.615c-6.959,6.943-8.847,17.038-5.672,25.699
					c8.653,3.194,18.753,1.328,25.711-5.615C219.38,250.576,221.269,240.481,218.094,231.82z"/>
				
					<line style="fill:none;stroke:#75A64D;stroke-width:3.9061;stroke-linecap:round;stroke-miterlimit:10;" x1="211.389" y1="238.511" x2="182.447" y2="267.388"/>
				
					<line style="fill:none;stroke:#75A64D;stroke-width:3.9061;stroke-linecap:round;stroke-miterlimit:10;" x1="204.021" y1="236.656" x2="204.011" y2="245.546"/>
				
					<line style="fill:none;stroke:#75A64D;stroke-width:3.9061;stroke-linecap:round;stroke-miterlimit:10;" x1="210.469" y1="252.018" x2="198.388" y2="252.005"/>
				
					<line style="fill:none;stroke:#75A64D;stroke-width:3.9061;stroke-linecap:round;stroke-miterlimit:10;" x1="192.491" y1="246.781" x2="192.48" y2="256.637"/>
			</g>
			<g>
				<path style="fill:#A4D794;" d="M392.779,120.021c-8.401-3.101-18.206-1.289-24.961,5.451c-6.755,6.74-8.589,16.541-5.507,24.949
					c8.401,3.101,18.206,1.289,24.961-5.451C394.028,138.229,395.861,128.428,392.779,120.021z"/>
				
					<line style="fill:none;stroke:#75A64D;stroke-width:3.7922;stroke-linecap:round;stroke-miterlimit:10;" x1="386.27" y1="126.516" x2="358.172" y2="154.55"/>
				
					<line style="fill:none;stroke:#75A64D;stroke-width:3.7922;stroke-linecap:round;stroke-miterlimit:10;" x1="379.116" y1="124.715" x2="379.107" y2="133.345"/>
				
					<line style="fill:none;stroke:#75A64D;stroke-width:3.7922;stroke-linecap:round;stroke-miterlimit:10;" x1="385.377" y1="139.629" x2="373.647" y2="139.616"/>
				
					<line style="fill:none;stroke:#75A64D;stroke-width:3.7922;stroke-linecap:round;stroke-miterlimit:10;" x1="367.923" y1="134.545" x2="367.912" y2="144.113"/>
			</g>
			<g>
				<path style="fill:#A4D794;" d="M153.664,128.231c2.725,7.547,1.108,16.321-4.888,22.432c-5.996,6.111-14.737,7.895-22.335,5.315
					c-2.725-7.547-1.108-16.321,4.888-22.432C137.324,127.435,146.066,125.651,153.664,128.231z"/>
				<path style="fill:#A4D794;" d="M157.609,170.243c-3.41,7.263-10.758,12.324-19.318,12.406
					c-8.561,0.082-16.003-4.838-19.551-12.035c3.41-7.263,10.758-12.324,19.318-12.406
					C146.618,158.126,154.061,163.046,157.609,170.243z"/>
				<path style="fill:#A4D794;" d="M155.366,195.536c-3.41,7.263-10.758,12.324-19.318,12.406s-16.003-4.838-19.551-12.035
					c3.41-7.263,10.758-12.324,19.318-12.406C144.376,183.419,151.818,188.339,155.366,195.536z"/>
				<path style="fill:#A4D794;" d="M106.923,132.732c7.901,1.402,14.7,7.178,17.008,15.422c2.308,8.244-0.505,16.711-6.53,22.01
					c-7.901-1.402-14.7-7.178-17.008-15.422C98.085,146.499,100.898,138.032,106.923,132.732z"/>
				<path style="fill:#A4D794;" d="M92.203,166.74c7.832-1.743,16.33,0.975,21.629,7.699c5.299,6.724,5.958,15.621,2.433,22.829
					c-7.833,1.743-16.33-0.975-21.629-7.699C89.337,182.846,88.679,173.949,92.203,166.74z"/>
				<path style="fill:none;stroke:#75A64D;stroke-width:4.0737;stroke-linecap:round;stroke-miterlimit:10;" d="M147.443,134.572
					l-16.771,17.094c-19.17,19.539-18.871,50.92,0.668,70.09l0,0"/>
				<polyline style="fill:none;stroke:#75A64D;stroke-width:4.0737;stroke-linecap:round;stroke-miterlimit:10;" points="
					148.026,170.575 118.739,170.614 109.1,141.903 				"/>
				<polyline style="fill:none;stroke:#75A64D;stroke-width:4.0737;stroke-linecap:round;stroke-miterlimit:10;" points="
					146.584,195.554 116.497,195.906 95.33,170.237 				"/>
			</g>
			<g>
				
					<line style="fill:none;stroke:#75A64D;stroke-width:4.1439;stroke-linecap:round;stroke-miterlimit:10;" x1="202.221" y1="336.281" x2="192.321" y2="318.271"/>
				
					<line style="fill:none;stroke:#75A64D;stroke-width:4.1439;stroke-linecap:round;stroke-miterlimit:10;" x1="186.893" y1="326.318" x2="197.12" y2="327.001"/>
				
					<line style="fill:none;stroke:#75A64D;stroke-width:4.1439;stroke-linecap:round;stroke-miterlimit:10;" x1="199.64" y1="331.586" x2="203.355" y2="320.422"/>
				<path style="fill:#F8C64D;" d="M195.311,312.354c1.455,2.648,0.489,5.974-2.159,7.429c-2.648,1.456-5.974,0.489-7.429-2.158
					c-1.456-2.648-0.489-5.974,2.159-7.429S193.856,309.707,195.311,312.354z"/>
				<path style="fill:#F8C64D;" d="M208.952,315.663c1.455,2.648,0.489,5.974-2.159,7.429c-2.648,1.456-5.974,0.489-7.429-2.159
					c-1.456-2.648-0.489-5.974,2.158-7.429C204.17,312.049,207.496,313.016,208.952,315.663z"/>
				<path style="fill:#F8C64D;" d="M189.051,323.679c1.456,2.648,0.489,5.974-2.159,7.429c-2.648,1.456-5.974,0.489-7.429-2.159
					c-1.456-2.648-0.489-5.974,2.158-7.429C184.269,320.065,187.596,321.031,189.051,323.679z"/>
			</g>
			<g>
				
					<line style="fill:none;stroke:#75A64D;stroke-width:3.9683;stroke-linecap:round;stroke-miterlimit:10;" x1="211.876" y1="135.324" x2="218.485" y2="116.786"/>
				
					<line style="fill:none;stroke:#75A64D;stroke-width:3.9683;stroke-linecap:round;stroke-miterlimit:10;" x1="209.271" y1="118.013" x2="215.281" y2="125.773"/>
				
					<line style="fill:none;stroke:#75A64D;stroke-width:3.9683;stroke-linecap:round;stroke-miterlimit:10;" x1="213.599" y1="130.491" x2="223.957" y2="126.057"/>
				<path style="fill:#F8C64D;" d="M224.624,115.168c-0.972,2.725-3.968,4.147-6.694,3.175c-2.725-0.972-4.147-3.968-3.175-6.694
					c0.972-2.725,3.969-4.147,6.694-3.175C224.174,109.446,225.595,112.443,224.624,115.168z"/>
				<path style="fill:#F8C64D;" d="M230.923,127.042c-0.972,2.725-3.968,4.147-6.694,3.175c-2.725-0.972-4.147-3.968-3.175-6.694
					c0.972-2.725,3.968-4.147,6.694-3.175C230.473,121.32,231.894,124.317,230.923,127.042z"/>
				<path style="fill:#F8C64D;" d="M212.533,117.881c-0.972,2.725-3.968,4.147-6.694,3.175c-2.725-0.972-4.147-3.968-3.175-6.694
					c0.972-2.725,3.968-4.147,6.694-3.175C212.083,112.159,213.505,115.156,212.533,117.881z"/>
			</g>
			<circle style="fill:#ED6C32;" cx="291.93" cy="161.554" r="4.279"/>
			<circle style="fill:#ED6C32;" cx="253.673" cy="216.437" r="4.279"/>
			<circle style="fill:#ED6C32;" cx="273.253" cy="114.717" r="3.836"/>
			<circle style="fill:#ED6C32;" cx="320.292" cy="56.485" r="2.729"/>
			<path style="fill:#ED6C32;" d="M269.54,58.233c0,1.507-1.222,2.729-2.729,2.729c-1.507,0-2.729-1.222-2.729-2.729
				c0-1.507,1.222-2.729,2.729-2.729C268.318,55.504,269.54,56.725,269.54,58.233z"/>
			<path style="fill:#ED6C32;" d="M378.09,105.609c0,1.507-1.222,2.729-2.729,2.729c-1.507,0-2.729-1.222-2.729-2.729
				c0-1.507,1.222-2.729,2.729-2.729C376.868,102.88,378.09,104.102,378.09,105.609z"/>
			<path style="fill:#ED6C32;" d="M169.583,132.923c0,1.326-1.075,2.401-2.4,2.401c-1.326,0-2.4-1.075-2.4-2.401
				c0-1.326,1.075-2.4,2.4-2.4C168.508,130.523,169.583,131.598,169.583,132.923z"/>
			<path style="fill:#ED6C32;" d="M111.5,207.943c0,1.326-1.075,2.4-2.4,2.4c-1.326,0-2.4-1.075-2.4-2.4c0-1.326,1.075-2.4,2.4-2.4
				C110.425,205.542,111.5,206.617,111.5,207.943z"/>
			<path style="fill:#ED6C32;" d="M228.623,323.77c0,3.567-2.891,6.458-6.458,6.458c-3.567,0-6.458-2.891-6.458-6.458
				c0-3.567,2.891-6.458,6.458-6.458C225.732,317.312,228.623,320.203,228.623,323.77z"/>
			<path style="fill:#ED6C32;" d="M168,313.295c0,2.086-1.691,3.777-3.777,3.777c-2.086,0-3.777-1.691-3.777-3.777
				c0-2.086,1.691-3.777,3.777-3.777C166.309,309.518,168,311.209,168,313.295z"/>
			<circle style="fill:#ED6C32;" cx="117.531" cy="261.965" r="2.848"/>
			<path style="fill:#F8C64D;" d="M171.849,63.685c0,1.153-0.935,2.087-2.087,2.087s-2.087-0.934-2.087-2.087
				c0-1.153,0.935-2.087,2.087-2.087S171.849,62.532,171.849,63.685z"/>
			<circle style="fill:#F8C64D;" cx="215.836" cy="190.715" r="4.447"/>
			<path style="fill:#F8C64D;" d="M292.098,178.945c0,1.228-0.995,2.223-2.223,2.223s-2.223-0.995-2.223-2.223
				c0-1.228,0.995-2.223,2.223-2.223S292.098,177.717,292.098,178.945z"/>
			<path style="fill:#F8C64D;" d="M252.223,150.689c0,1.228-0.995,2.223-2.223,2.223c-1.228,0-2.223-0.995-2.223-2.223
				c0-1.228,0.995-2.223,2.223-2.223C251.228,148.466,252.223,149.461,252.223,150.689z"/>
			<path style="fill:#F8C64D;" d="M184.671,192.939c0,1.228-0.996,2.223-2.223,2.223c-1.228,0-2.223-0.995-2.223-2.223
				c0-1.228,0.995-2.223,2.223-2.223C183.675,190.715,184.671,191.711,184.671,192.939z"/>
			<path style="fill:#ED6C32;" d="M219.627,161.554c0,1.228-0.995,2.223-2.223,2.223c-1.228,0-2.223-0.995-2.223-2.223
				c0-1.228,0.995-2.223,2.223-2.223C218.632,159.331,219.627,160.326,219.627,161.554z"/>
			<path style="fill:#ED6C32;" d="M258.12,172.274c0,1.228-0.995,2.223-2.223,2.223c-1.228,0-2.223-0.995-2.223-2.223
				s0.995-2.223,2.223-2.223C257.125,170.051,258.12,171.046,258.12,172.274z"/>
			<path style="fill:#ED6C32;" d="M319.742,198.942c0,1.228-0.995,2.223-2.223,2.223c-1.228,0-2.223-0.995-2.223-2.223
				c0-1.228,0.995-2.223,2.223-2.223C318.747,196.719,319.742,197.714,319.742,198.942z"/>
			<path style="fill:#ED6C32;" d="M336.028,262.499c0,1.228-0.995,2.223-2.223,2.223s-2.223-0.996-2.223-2.223
				c0-1.228,0.996-2.223,2.223-2.223S336.028,261.272,336.028,262.499z"/>
			<path style="fill:#ED6C32;" d="M404.354,203.389c0,1.228-0.995,2.223-2.223,2.223c-1.228,0-2.223-0.995-2.223-2.223
				c0-1.228,0.995-2.223,2.223-2.223C403.359,201.166,404.354,202.161,404.354,203.389z"/>
			<path style="fill:#F8C64D;" d="M291.24,142.288c0,1.228-0.995,2.223-2.223,2.223s-2.223-0.995-2.223-2.223
				c0-1.228,0.996-2.223,2.223-2.223S291.24,141.06,291.24,142.288z"/>
			<circle style="fill:#F8C64D;" cx="162.779" cy="153.072" r="5.816"/>
			<circle style="fill:#F8C64D;" cx="316.712" cy="116.383" r="5.501"/>
			<path style="fill:#F8C64D;" d="M266.81,46.962c0,2.693-2.183,4.875-4.875,4.875s-4.875-2.183-4.875-4.875
				c0-2.693,2.183-4.875,4.875-4.875S266.81,44.27,266.81,46.962z"/>
			<path style="fill:#F8C64D;" d="M264.382,261.603c0,1.553-1.259,2.811-2.811,2.811c-1.553,0-2.811-1.259-2.811-2.811
				s1.259-2.811,2.811-2.811C263.123,258.792,264.382,260.051,264.382,261.603z"/>
			<path style="fill:#F8C64D;" d="M328.019,319.152c0,3.493-2.832,6.325-6.325,6.325s-6.325-2.832-6.325-6.325
				c0-3.493,2.832-6.325,6.325-6.325S328.019,315.659,328.019,319.152z"/>
			<path style="fill:#ED6C32;" d="M370.236,290.201c0,2.198-1.782,3.98-3.98,3.98c-2.198,0-3.98-1.782-3.98-3.98
				c0-2.198,1.782-3.98,3.98-3.98C368.454,286.221,370.236,288.003,370.236,290.201z"/>
			<path style="fill:#ED6C32;" d="M343.896,312.795c0,1.532-1.242,2.774-2.774,2.774c-1.532,0-2.774-1.242-2.774-2.774
				c0-1.532,1.242-2.774,2.774-2.774C342.654,310.021,343.896,311.263,343.896,312.795z"/>
			<path style="fill:#F8C64D;" d="M129.32,114.462h-0.09c-1.033,0-1.87-0.837-1.87-1.87l0,0c0-0.866-0.648-1.642-1.513-1.688
				c-0.922-0.048-1.685,0.685-1.685,1.597v0.09c0,1.033-0.837,1.87-1.87,1.87h-0.091c-0.883,0-1.599,0.716-1.599,1.599l0,0
				c0,0.883,0.716,1.599,1.599,1.599h0.091c1.033,0,1.87,0.837,1.87,1.87l0,0c0,0.866,0.648,1.642,1.513,1.688
				c0.922,0.048,1.685-0.685,1.685-1.597v-0.09c0-1.033,0.837-1.87,1.87-1.87h0.09c0.883,0,1.599-0.716,1.599-1.599v0
				C130.919,115.178,130.203,114.462,129.32,114.462z"/>
			<path style="fill:#F8C64D;" d="M244.235,340.246h-0.091c-1.033,0-1.87-0.837-1.87-1.87l0,0c0-0.866-0.648-1.642-1.513-1.688
				c-0.922-0.048-1.685,0.685-1.685,1.597v0.09c0,1.033-0.837,1.87-1.87,1.87h-0.09c-0.883,0-1.599,0.716-1.599,1.599l0,0
				c0,0.883,0.716,1.599,1.599,1.599h0.09c1.033,0,1.87,0.837,1.87,1.87l0,0c0,0.866,0.648,1.642,1.513,1.688
				c0.922,0.048,1.685-0.685,1.685-1.597v-0.09c0-1.033,0.837-1.87,1.87-1.87h0.091c0.883,0,1.599-0.716,1.599-1.599l0,0
				C245.834,340.962,245.118,340.246,244.235,340.246z"/>
			<path style="fill:#F8C64D;" d="M402.071,150.289h-0.091c-1.033,0-1.87-0.837-1.87-1.87l0,0c0-0.866-0.648-1.642-1.513-1.688
				c-0.922-0.048-1.685,0.685-1.685,1.597v0.09c0,1.033-0.837,1.87-1.87,1.87h-0.091c-0.883,0-1.599,0.716-1.599,1.599l0,0
				c0,0.883,0.716,1.599,1.599,1.599h0.091c1.033,0,1.87,0.837,1.87,1.87l0,0c0,0.866,0.648,1.642,1.513,1.688
				c0.922,0.048,1.685-0.685,1.685-1.597v-0.09c0-1.033,0.837-1.87,1.87-1.87h0.091c0.883,0,1.599-0.716,1.599-1.599l0,0
				C403.67,151.005,402.954,150.289,402.071,150.289z"/>
			<path style="fill:#F8C64D;" d="M248.29,113.614h-0.063c-0.713,0-1.29-0.578-1.29-1.29l0,0c0-0.598-0.447-1.133-1.044-1.165
				c-0.637-0.033-1.163,0.473-1.163,1.102v0.062c0,0.713-0.578,1.29-1.29,1.29h-0.063c-0.61,0-1.104,0.494-1.104,1.104l0,0
				c0,0.61,0.494,1.104,1.104,1.104h0.063c0.713,0,1.29,0.578,1.29,1.29l0,0c0,0.598,0.448,1.133,1.044,1.165
				c0.637,0.033,1.163-0.473,1.163-1.102v-0.063c0-0.713,0.578-1.29,1.29-1.29h0.063c0.609,0,1.104-0.494,1.104-1.104l0,0
				C249.394,114.108,248.9,113.614,248.29,113.614z"/>
			<path style="fill:#F8C64D;" d="M295.034,121.108h-0.062c-0.713,0-1.29-0.578-1.29-1.29l0,0c0-0.598-0.448-1.133-1.044-1.165
				c-0.637-0.033-1.163,0.473-1.163,1.102v0.062c0,0.713-0.578,1.29-1.29,1.29h-0.063c-0.609,0-1.104,0.494-1.104,1.104l0,0
				c0,0.609,0.494,1.104,1.104,1.104h0.063c0.713,0,1.29,0.578,1.29,1.29l0,0c0,0.598,0.447,1.133,1.044,1.165
				c0.636,0.033,1.163-0.473,1.163-1.102v-0.062c0-0.713,0.578-1.29,1.29-1.29h0.062c0.61,0,1.104-0.494,1.104-1.104l0,0
				C296.137,121.603,295.643,121.108,295.034,121.108z"/>
			<path style="fill:#F8C64D;" d="M252.57,190.498h-0.063c-0.713,0-1.29-0.578-1.29-1.29l0,0c0-0.598-0.447-1.133-1.044-1.165
				c-0.637-0.033-1.163,0.473-1.163,1.102v0.063c0,0.713-0.578,1.29-1.29,1.29h-0.063c-0.61,0-1.104,0.494-1.104,1.104l0,0
				c0,0.61,0.494,1.104,1.104,1.104h0.063c0.713,0,1.29,0.578,1.29,1.29l0,0c0,0.598,0.448,1.133,1.044,1.165
				c0.637,0.033,1.163-0.473,1.163-1.102v-0.063c0-0.713,0.578-1.29,1.29-1.29h0.063c0.609,0,1.104-0.494,1.104-1.104l0,0
				C253.673,190.992,253.179,190.498,252.57,190.498z"/>
			<path style="fill:#F8C64D;" d="M205.27,54.02h-0.099c-1.128,0-2.042-0.914-2.042-2.042l0,0c0-0.945-0.708-1.793-1.652-1.843
				c-1.007-0.053-1.84,0.748-1.84,1.744v0.099c0,1.127-0.914,2.042-2.042,2.042h-0.099c-0.964,0-1.746,0.782-1.746,1.746l0,0
				c0,0.964,0.782,1.746,1.746,1.746h0.099c1.128,0,2.042,0.914,2.042,2.042v0c0,0.945,0.708,1.793,1.652,1.843
				c1.007,0.053,1.84-0.748,1.84-1.744v-0.099c0-1.128,0.914-2.042,2.042-2.042h0.099c0.964,0,1.746-0.782,1.746-1.746l0,0
				C207.016,54.802,206.234,54.02,205.27,54.02z"/>
			<path style="fill:#F8C64D;" d="M141.533,283.052h-0.09c-1.033,0-1.87-0.837-1.87-1.87l0,0c0-0.866-0.648-1.642-1.513-1.688
				c-0.922-0.048-1.685,0.685-1.685,1.597v0.09c0,1.033-0.837,1.87-1.87,1.87h-0.09c-0.883,0-1.599,0.716-1.599,1.599l0,0
				c0,0.883,0.716,1.599,1.599,1.599h0.09c1.033,0,1.87,0.837,1.87,1.87l0,0c0,0.866,0.648,1.642,1.513,1.688
				c0.922,0.048,1.685-0.685,1.685-1.597v-0.09c0-1.033,0.837-1.87,1.87-1.87h0.09c0.883,0,1.599-0.716,1.599-1.599l0,0
				C143.132,283.768,142.416,283.052,141.533,283.052z"/>
			<path style="fill:#F8C64D;" d="M115.721,224.212h-0.09c-1.033,0-1.87-0.837-1.87-1.87l0,0c0-0.866-0.648-1.642-1.513-1.688
				c-0.922-0.048-1.685,0.685-1.685,1.597v0.09c0,1.033-0.837,1.87-1.87,1.87h-0.09c-0.883,0-1.599,0.716-1.599,1.599v0
				c0,0.883,0.716,1.599,1.599,1.599h0.09c1.033,0,1.87,0.837,1.87,1.87l0,0c0,0.866,0.649,1.642,1.513,1.688
				c0.922,0.048,1.685-0.685,1.685-1.597v-0.09c0-1.033,0.837-1.87,1.87-1.87h0.09c0.883,0,1.599-0.716,1.599-1.599l0,0
				C117.32,224.928,116.604,224.212,115.721,224.212z"/>
			<text transform="matrix(1 0 0 1 178.7861 105.6091)" style="fill:#166B48; font-family:'BebasNeueBold'; font-size:56.8708px;">E R R O R</text>
			<text transform="matrix(1 0 0 1 146.6631 305.24)" style="fill:#166B48; font-family:'BebasNeueBook'; font-size:43.7431px;">PAGE NOT FOUND</text>
		</g>
		<rect x="107.512" y="365.237" style="fill:none;" width="284.976" height="30.233"/>
		<text transform="matrix(1 0 0 1 126.0234 374.0379)"><tspan x="0" y="0" style="fill:#166B48; font-family:'OpenSans-Semibold'; font-size:11.5787px;">The page you’re looking for might have been </tspan><tspan x="-17.552" y="13.895" style="fill:#166B48; font-family:'OpenSans-Semibold'; font-size:11.5787px;">moved, removed, renamed, or might never existed</tspan></text>
		<rect x="190.636" y="412.55" style="fill:#166B48;" width="118.727" height="33.45"/>
		
			<text transform="matrix(1 0 0 1 205.6001 435.2043)" style="fill:#FFFFFF; font-family:'OpenSans-Semibold'; font-size:16.261px;">Back Home</text>
	</g>
</g>
</svg>
